<svg xmlns="http://www.w3.org/2000/svg" version="1.1" xmlns:xlink="http://www.w3.org/1999/xlink" xmlns:svgjs="http://svgjs.dev/svgjs" width="100%" height="100%" viewBox="0 0 1000 600"><rect width="1000" height="600" x="0" y="0" fill="#f7f7f7"/><g><rect width="333.3333333333333" height="333.3333333333333" rx="13.333333333333334" ry="13.333333333333334" y="77.77780045403293" fill="#006838" transform="matrix(2.25000013732911,0,0,2.25000013732911,0,-250.00003738403575)" x="55.555564880371094"/><path d="M113.21963849648739 169.44445892005518L214.79397028209866 169.44445892005518L214.79397028209866 185.34720892298193L173.90118456028694 185.34720892298193L173.90118456028694 319.44445800781193L154.3216709288639 319.44445800781193L154.3216709288639 185.34720892298193L113.21963849648739 185.34720892298193L113.21963849648739 169.44445892005518ZM229.6504867322013 169.44445892005518L331.22481851781254 169.44445892005518L331.22481851781254 185.34720892298193L290.3320327960009 185.34720892298193L290.3320327960009 319.44445800781193L270.75251916457785 319.44445800781193L270.75251916457785 185.34720892298193L229.6504867322013 185.34720892298193L229.6504867322013 169.44445892005518Z " fill="#f7f7f7" transform="matrix(2.25000013732911,0,0,2.25000013732911,0,-250.00003738403575)"/><path d="MNaN 244.4444580078119 " fill="#006838" transform="matrix(2.25000013732911,0,0,2.25000013732911,0,-250.00003738403575)"/></g></svg>